<svg xmlns="http://www.w3.org/2000/svg" width="20.571" height="18" viewBox="0 0 20.571 18">
  <g id="Group_2" data-name="Group 2" transform="translate(-266.214 -281)">
    <path id="Path" d="M20.571,6.429A.423.423,0,0,0,20.143,6H14.25a3,3,0,1,0,0-6A2.853,2.853,0,0,0,12,1.031l-1.714,2.21L8.571,1.031A2.853,2.853,0,0,0,6.321,0a3,3,0,0,0,0,6H.429A.423.423,0,0,0,0,6.429v4.286a.423.423,0,0,0,.429.429H1.714v5.571A1.286,1.286,0,0,0,3,18H17.571a1.286,1.286,0,0,0,1.286-1.286V11.143h1.286a.423.423,0,0,0,.429-.429Z" transform="translate(266.214 281)" fill="#fff"/>
    <path id="Path-2" data-name="Path" d="M4.286,9.589c0,.469-.388.7-.857.7H.857c-.469,0-.857-.228-.857-.7V0H4.286V9.589Z" transform="translate(274.357 287)" fill="#61b203"/>
    <path id="Path-3" data-name="Path" d="M1.286,2.571A1.286,1.286,0,0,1,1.286,0,1.227,1.227,0,0,1,2.21.415L3.9,2.571Z" transform="translate(271.25 282.714)" fill="#61b203"/>
    <path id="Path-4" data-name="Path" d="M3.884,1.286A1.286,1.286,0,0,1,2.6,2.571H0L1.674.415A1.227,1.227,0,0,1,2.6,0,1.286,1.286,0,0,1,3.884,1.286Z" transform="translate(277.866 282.714)" fill="#61b203"/>
  </g>
</svg>
