<svg xmlns="http://www.w3.org/2000/svg" width="4.286" height="15.714" viewBox="0 0 4.286 15.714">
  <path id="Shape" d="M1.071,15.714A1.071,1.071,0,0,1,0,14.643V12.5a1.072,1.072,0,0,1,1.071-1.072H3.214A1.072,1.072,0,0,1,4.286,12.5v2.143a1.071,1.071,0,0,1-1.072,1.071Zm0-5.714A1.071,1.071,0,0,1,0,8.929V6.786A1.071,1.071,0,0,1,1.071,5.714H3.214A1.072,1.072,0,0,1,4.286,6.786V8.929A1.071,1.071,0,0,1,3.214,10Zm0-5.714A1.071,1.071,0,0,1,0,3.214V1.071A1.071,1.071,0,0,1,1.071,0H3.214A1.071,1.071,0,0,1,4.286,1.071V3.214A1.072,1.072,0,0,1,3.214,4.286Z" fill="#61b203"/>
</svg>
